<svg width="20" height="13" viewBox="0 0 20 13" fill="none" xmlns="http://www.w3.org/2000/svg">
<path d="M10.5479 12.3403C9.83398 12.3403 9.39404 11.9253 9.39404 11.2529C9.39404 11.0371 9.43555 10.813 9.52686 10.5557L12.7642 1.65723C13.0796 0.752441 13.6855 0.320801 14.6401 0.320801C15.6362 0.320801 16.2505 0.752441 16.5659 1.65723L19.7617 10.4727C19.853 10.7466 19.8945 10.9624 19.8945 11.228C19.8945 11.9004 19.4214 12.3403 18.6909 12.3403C18.0103 12.3403 17.645 12.0498 17.4458 11.3359L16.7568 9.34375H12.4819L11.793 11.3359C11.5938 12.0498 11.2285 12.3403 10.5479 12.3403ZM13.0215 7.52588H16.2588L14.665 2.66992H14.6152L13.0215 7.52588ZM1.11816 12.332C0.495605 12.332 0.105469 11.9668 0.105469 11.3774C0.105469 11.1782 0.163574 10.9209 0.246582 10.6802L2.5376 4.48779C2.82812 3.68262 3.31787 3.31738 4.06494 3.31738C4.86182 3.31738 5.35156 3.68262 5.65039 4.48779L7.94141 10.6802C8.03271 10.9458 8.08252 11.1533 8.08252 11.3774C8.08252 11.9419 7.66748 12.332 7.08643 12.332C6.52197 12.332 6.21484 12.0747 6.04053 11.4272L5.60059 10.0659H2.5708L2.13086 11.4106C1.94824 12.0581 1.63281 12.332 1.11816 12.332ZM2.99414 8.55518H5.16064L4.13135 5.27637H3.99023L2.99414 8.55518Z" fill="white" fill-opacity="0.9"/>
</svg>
